<svg xmlns="http://www.w3.org/2000/svg" width="177.568" height="153.872" viewBox="0 0 177.568 153.872">
  <g id="Group_407" data-name="Group 407" transform="translate(794.689 437.71)">
    <path id="Path_414" data-name="Path 414" d="M-599.31-437.71c.649.149,1.3.287,1.947.45a16.082,16.082,0,0,1,11.647,12.982,14.7,14.7,0,0,1-2.608,9.954,27.751,27.751,0,0,1-10.353,9.158,51.985,51.985,0,0,1-14.266,5.136c-.584.126-.842.333-.845.97-.019,3.15-.088,6.3-.124,9.449a13.64,13.64,0,0,0,.1,1.5c.137,1.369.142,1.368,1.482,1.673a49.29,49.29,0,0,1,16.122,6.488,24.42,24.42,0,0,1,9.064,9.795,14.009,14.009,0,0,1-3.293,16.835,15.735,15.735,0,0,1-7.607,4.136,14.078,14.078,0,0,1-9.7-1.676,26.1,26.1,0,0,1-9.917-10.22,51.467,51.467,0,0,1-5.653-15.184c-.114-.518-.268-.732-.85-.781a70.794,70.794,0,0,0-11.7-.009c-.686.055-.8.385-.908.9a53.074,53.074,0,0,1-4.391,12.8c-2.3,4.549-5.221,8.6-9.515,11.5a15.5,15.5,0,0,1-8.767,2.919,14.154,14.154,0,0,1-9.705-3.966,15.21,15.21,0,0,1-5.012-8.335,14.4,14.4,0,0,1,2.238-10.734,26.933,26.933,0,0,1,10.093-9.218,51.648,51.648,0,0,1,14.654-5.375c.609-.133.859-.333.911-.992a71.34,71.34,0,0,0-.031-11.774c-.05-.571-.394-.6-.783-.688a54.641,54.641,0,0,1-12.335-4.139c-4.74-2.322-8.984-5.266-12.008-9.705a15.431,15.431,0,0,1-3-9.184,14.278,14.278,0,0,1,4.713-10.134,14.808,14.808,0,0,1,8.746-4.41c.061-.007.115-.082.172-.126h2.556a1.71,1.71,0,0,0,.407.155,14.609,14.609,0,0,1,5.389,1.744,26.129,26.129,0,0,1,10.085,10.358,51.045,51.045,0,0,1,5.593,15.047c.117.542.276.815.945.868a74.248,74.248,0,0,0,11.775-.016c.5-.039.61-.257.714-.668.489-1.936.93-3.89,1.534-5.791,1.828-5.755,4.405-11.12,8.633-15.54a19.255,19.255,0,0,1,9.5-5.756c.6-.143,1.2-.268,1.8-.4Zm-12.021,63a1.407,1.407,0,0,0-.023.348,30.585,30.585,0,0,0,5.65,11.08,10.832,10.832,0,0,0,3.684,2.911,2.525,2.525,0,0,0,2.169.234,5.444,5.444,0,0,0,2.983-3.106c.419-1.108-.154-2.054-.714-2.944a16.384,16.384,0,0,0-5.766-5.153A37.329,37.329,0,0,0-611.33-374.711Zm-37.323-37.153a4.992,4.992,0,0,0-.088-.515,32.26,32.26,0,0,0-4.9-10.061,12.557,12.557,0,0,0-4.121-3.661c-2.268-1.184-5.464.818-5.5,3.4a4.545,4.545,0,0,0,1.089,2.732,18.01,18.01,0,0,0,6.262,5.155A40.145,40.145,0,0,0-648.653-411.864Zm37.188-.085a2.668,2.668,0,0,0,.43-.038c4.074-1.294,8.011-2.9,11.2-5.84a13.823,13.823,0,0,0,2.754-3.6c1.034-1.938-1.423-5.316-3.634-5.184a1.178,1.178,0,0,0-.508.107,18.347,18.347,0,0,0-3.169,1.92C-608.135-421.213-609.911-416.713-611.465-411.949Zm-37.152,37.293a2.886,2.886,0,0,0-.431.048,33.551,33.551,0,0,0-9.344,4.344,14.165,14.165,0,0,0-4.31,4.432,4.154,4.154,0,0,0,3.065,5.837,1.474,1.474,0,0,0,.664-.069,11.607,11.607,0,0,0,1.9-.855,15.738,15.738,0,0,0,4.935-5.467A35.687,35.687,0,0,0-648.616-374.656Zm23.585-23.637h-10.011v9.989h10.011Z" transform="translate(-75.868 0)" fill="#fff"/>
    <path id="Path_415" data-name="Path 415" d="M-794.689-127.486c.131-.731.237-1.468.4-2.192,1.2-5.376,5.258-8.5,10.8-8.324,6.077.193,10.029,3.964,10.606,10.069a14.174,14.174,0,0,1-1.391,8.229,9.8,9.8,0,0,1-8.211,5.271,10.345,10.345,0,0,1-6.637-1.409v10.175l-5.56.124Zm5.394,1.222.145.023c0,.4-.02.8,0,1.2.179,3.13,1.7,5.07,4.451,5.47,2.794.4,5.456-.637,6.1-4.018a16.168,16.168,0,0,0,.147-4.535,4.771,4.771,0,0,0-4.731-4.727c-2.521-.249-4.783.758-5.563,3.5A29.8,29.8,0,0,0-789.295-126.264Z" transform="translate(0 -178.295)" fill="#fff"/>
    <path id="Path_416" data-name="Path 416" d="M-496.757-114.8h-5.274c-.015-.305-.043-.595-.043-.884,0-4.357,0-8.714-.01-13.071a7.1,7.1,0,0,0-.178-1.634c-.376-1.554-1.53-2.375-3.577-2.5a7.451,7.451,0,0,0-2.084.175,3.123,3.123,0,0,0-2.6,3.362c-.01,4.532,0,9.065,0,13.6v.939h-5.4c-.016-.305-.046-.6-.046-.894,0-4.307-.086-8.616.025-12.92.086-3.377-1.911-4.525-4.982-4.216-2.071.208-2.994.971-3.344,2.555a6.676,6.676,0,0,0-.11,1.417q-.012,6.573-.007,13.146c0,.295-.026.59-.042.922h-5.409v-14.453a8.19,8.19,0,0,1,7.442-8.594c3.658-.53,5.554-.006,9.254,2.576a8.814,8.814,0,0,1,4.6-2.468,10.692,10.692,0,0,1,9.221,1.94,6.968,6.968,0,0,1,2.6,5.459c.089,5.106.029,10.215.028,15.323A1.318,1.318,0,0,1-496.757-114.8Z" transform="translate(-167.09 -178.274)" fill="#fff"/>
    <path id="Path_417" data-name="Path 417" d="M-676.822-137.949c6.383.011,10.762,4.241,11.056,10.612a14.808,14.808,0,0,1-.909,6.476,10.048,10.048,0,0,1-8.988,6.466,12.258,12.258,0,0,1-5.1-.548,9.525,9.525,0,0,1-6.071-5.541,13.987,13.987,0,0,1,.176-11.716c1.776-3.753,4.968-5.464,9.014-5.746C-677.375-137.966-677.1-137.949-676.822-137.949Zm-5.765,11.739c.147.968.212,1.9.437,2.787a5.028,5.028,0,0,0,5.011,3.959c2.831.064,4.73-1.187,5.523-3.687a10.829,10.829,0,0,0,.334-4.526c-.332-3-1.965-4.8-4.934-5.126-2.677-.293-5.045.826-5.879,3.75A25.551,25.551,0,0,0-682.587-126.21Z" transform="translate(-67.288 -178.329)" fill="#fff"/>
    <path id="Path_418" data-name="Path 418" d="M-422.5-137.018v.919q0,6.123,0,12.245a7.145,7.145,0,0,0,.107,1.342,4.025,4.025,0,0,0,4.055,3.6,7.878,7.878,0,0,0,2.23-.182c1.971-.454,3.12-2.118,3.129-4.474.016-4.132,0-8.264,0-12.4v-.979c.266-.028.5-.074.737-.075,1.327-.007,2.655.016,3.982-.013.531-.011.76.12.757.708-.021,4.081.018,8.164-.03,12.245a18.632,18.632,0,0,1-.4,3.641,7.706,7.706,0,0,1-6.061,6.254,15.269,15.269,0,0,1-7.5,0,7.89,7.89,0,0,1-6.187-6.762,17.864,17.864,0,0,1-.266-3.058c-.029-4.056,0-8.113-.025-12.17,0-.647.16-.881.839-.86C-425.6-136.985-424.081-137.018-422.5-137.018Z" transform="translate(-231.371 -178.91)" fill="#fff"/>
    <path id="Path_419" data-name="Path 419" d="M-362.938-116.39q.636-2.342,1.249-4.6c1.575.481,3.061,1,4.579,1.382a10.464,10.464,0,0,0,4.61.25,5.948,5.948,0,0,0,.729-.17,1.969,1.969,0,0,0,1.6-1.688,1.809,1.809,0,0,0-1.285-1.843c-1.607-.684-3.252-1.279-4.875-1.928-1.043-.418-2.1-.817-3.105-1.313-2.751-1.356-3.421-3.2-3.11-6.182a5.541,5.541,0,0,1,4.7-5.154c3.991-.9,7.893-.178,11.866.793L-347-132.279c-2.075-.311-4.04-.652-6.019-.88a13.118,13.118,0,0,0-2.686.06,1.4,1.4,0,0,0-1.431,1.194,1.417,1.417,0,0,0,1.04,1.7c1.4.6,2.843,1.1,4.253,1.673,1.27.52,2.546,1.038,3.775,1.646,2.685,1.33,3.622,3.59,3.272,6.468a6.078,6.078,0,0,1-4.377,5.365,16.174,16.174,0,0,1-6.75.565,20.072,20.072,0,0,1-6.373-1.59C-362.5-116.167-362.693-116.271-362.938-116.39Z" transform="translate(-272.396 -178.27)" fill="#fff"/>
    <path id="Path_420" data-name="Path 420" d="M-625.688-137c2.006,0,3.854-.018,5.7.024.225,0,.5.29.653.514,1.377,2.028,2.731,4.072,4.093,6.111.138.206.284.407.486.7.192-.257.358-.459.5-.676,1.363-2.038,2.732-4.074,4.074-6.126a1.087,1.087,0,0,1,1.04-.559c1.725.025,3.451.01,5.342.01-.2.321-.328.541-.473.747-2.359,3.358-4.711,6.721-7.092,10.063a.8.8,0,0,0,0,1.109c2.369,3.381,4.714,6.779,7.065,10.172.153.221.3.445.536.791-2,0-3.862.018-5.724-.024-.22,0-.487-.3-.639-.529-1.372-2.032-2.722-4.078-4.079-6.12-.149-.225-.3-.447-.519-.763-.211.289-.372.493-.516.709-1.375,2.06-2.758,4.115-4.109,6.191a1.048,1.048,0,0,1-1.025.551c-1.726-.032-3.453-.013-5.323-.013.193-.3.323-.524.469-.734,2.315-3.327,4.605-6.672,6.971-9.964a1.2,1.2,0,0,0-.037-1.682c-2.353-3.27-4.667-6.568-6.993-9.857C-625.4-136.52-625.5-136.694-625.688-137Z" transform="translate(-106.62 -178.921)" fill="#fff"/>
    <path id="Path_421" data-name="Path 421" d="M-711.735-137.861c-.315,1.815-.6,3.478-.9,5.21a19.651,19.651,0,0,0-2.026.01,4.087,4.087,0,0,0-3.9,4.386c-.025,4.178-.007,8.357-.008,12.535v.933h-5.405c-.016-.314-.045-.609-.045-.9q0-6.155,0-12.31c0-6.207,4.077-10.168,10.291-9.991C-713.12-137.973-712.5-137.912-711.735-137.861Z" transform="translate(-44.579 -178.303)" fill="#fff"/>
    <path id="Path_422" data-name="Path 422" d="M-557.553-114.046V-136.81h5.327v22.764Z" transform="translate(-149.611 -179.052)" fill="#fff"/>
  </g>
</svg>
