<svg xmlns="http://www.w3.org/2000/svg" width="88.823" height="88.779" viewBox="0 0 88.823 88.779">
  <path id="Path_414" data-name="Path 414" d="M-599.31-437.71c.649.149,1.3.287,1.947.45a16.082,16.082,0,0,1,11.647,12.982,14.7,14.7,0,0,1-2.608,9.954,27.751,27.751,0,0,1-10.353,9.158,51.985,51.985,0,0,1-14.266,5.136c-.584.126-.842.333-.845.97-.019,3.15-.088,6.3-.124,9.449a13.64,13.64,0,0,0,.1,1.5c.137,1.369.142,1.368,1.482,1.673a49.29,49.29,0,0,1,16.122,6.488,24.42,24.42,0,0,1,9.064,9.795,14.009,14.009,0,0,1-3.293,16.835,15.735,15.735,0,0,1-7.607,4.136,14.078,14.078,0,0,1-9.7-1.676,26.1,26.1,0,0,1-9.917-10.22,51.467,51.467,0,0,1-5.653-15.184c-.114-.518-.268-.732-.85-.781a70.794,70.794,0,0,0-11.7-.009c-.686.055-.8.385-.908.9a53.074,53.074,0,0,1-4.391,12.8c-2.3,4.549-5.221,8.6-9.515,11.5a15.5,15.5,0,0,1-8.767,2.919,14.154,14.154,0,0,1-9.705-3.966,15.21,15.21,0,0,1-5.012-8.335,14.4,14.4,0,0,1,2.238-10.734,26.933,26.933,0,0,1,10.093-9.218,51.648,51.648,0,0,1,14.654-5.375c.609-.133.859-.333.911-.992a71.34,71.34,0,0,0-.031-11.774c-.05-.571-.394-.6-.783-.688a54.641,54.641,0,0,1-12.335-4.139c-4.74-2.322-8.984-5.266-12.008-9.705a15.431,15.431,0,0,1-3-9.184,14.278,14.278,0,0,1,4.713-10.134,14.808,14.808,0,0,1,8.746-4.41c.061-.007.115-.082.172-.126h2.556a1.71,1.71,0,0,0,.407.155,14.609,14.609,0,0,1,5.389,1.744,26.129,26.129,0,0,1,10.085,10.358,51.045,51.045,0,0,1,5.593,15.047c.117.542.276.815.945.868a74.248,74.248,0,0,0,11.775-.016c.5-.039.61-.257.714-.668.489-1.936.93-3.89,1.534-5.791,1.828-5.755,4.405-11.12,8.633-15.54a19.255,19.255,0,0,1,9.5-5.756c.6-.143,1.2-.268,1.8-.4Zm-12.021,63a1.407,1.407,0,0,0-.023.348,30.585,30.585,0,0,0,5.65,11.08,10.832,10.832,0,0,0,3.684,2.911,2.525,2.525,0,0,0,2.169.234,5.444,5.444,0,0,0,2.983-3.106c.419-1.108-.154-2.054-.714-2.944a16.384,16.384,0,0,0-5.766-5.153A37.329,37.329,0,0,0-611.33-374.711Zm-37.323-37.153a4.992,4.992,0,0,0-.088-.515,32.26,32.26,0,0,0-4.9-10.061,12.557,12.557,0,0,0-4.121-3.661c-2.268-1.184-5.464.818-5.5,3.4a4.545,4.545,0,0,0,1.089,2.732,18.01,18.01,0,0,0,6.262,5.155A40.145,40.145,0,0,0-648.653-411.864Zm37.188-.085a2.668,2.668,0,0,0,.43-.038c4.074-1.294,8.011-2.9,11.2-5.84a13.823,13.823,0,0,0,2.754-3.6c1.034-1.938-1.423-5.316-3.634-5.184a1.178,1.178,0,0,0-.508.107,18.347,18.347,0,0,0-3.169,1.92C-608.135-421.213-609.911-416.713-611.465-411.949Zm-37.152,37.293a2.886,2.886,0,0,0-.431.048,33.551,33.551,0,0,0-9.344,4.344,14.165,14.165,0,0,0-4.31,4.432,4.154,4.154,0,0,0,3.065,5.837,1.474,1.474,0,0,0,.664-.069,11.607,11.607,0,0,0,1.9-.855,15.738,15.738,0,0,0,4.935-5.467A35.687,35.687,0,0,0-648.616-374.656Zm23.585-23.637h-10.011v9.989h10.011Z" transform="translate(674.436 437.71)" fill="#fff"/>
</svg>

