<svg xmlns="http://www.w3.org/2000/svg" width="93.225" height="93.225" viewBox="0 0 93.225 93.225">
  <g id="Group_414" data-name="Group 414" transform="translate(-5253 -1444.526)">
    <rect id="Rectangle_145" data-name="Rectangle 145" width="93.225" height="93.225" transform="translate(5253 1444.526)" fill="#40c1e1"/>
    <g id="Group_413" data-name="Group 413" transform="translate(5265.645 1464.074)">
      <path id="Path_414" data-name="Path 414" d="M-645.838-437.71c.247.057.5.109.741.171a6.122,6.122,0,0,1,4.434,4.942,5.594,5.594,0,0,1-.993,3.789,10.565,10.565,0,0,1-3.941,3.486,19.791,19.791,0,0,1-5.431,1.955c-.222.048-.32.127-.322.369-.007,1.2-.034,2.4-.047,3.6a5.184,5.184,0,0,0,.038.57c.052.521.054.521.564.637a18.762,18.762,0,0,1,6.137,2.47A9.3,9.3,0,0,1-641.206-412a5.333,5.333,0,0,1-1.254,6.409,5.99,5.99,0,0,1-2.9,1.574,5.359,5.359,0,0,1-3.692-.638,9.938,9.938,0,0,1-3.775-3.89,19.592,19.592,0,0,1-2.152-5.78c-.043-.2-.1-.279-.324-.3a26.947,26.947,0,0,0-4.453,0c-.261.021-.3.147-.346.345a20.209,20.209,0,0,1-1.672,4.872,11.113,11.113,0,0,1-3.622,4.379,5.9,5.9,0,0,1-3.337,1.111,5.388,5.388,0,0,1-3.695-1.51,5.79,5.79,0,0,1-1.908-3.173,5.48,5.48,0,0,1,.852-4.086,10.255,10.255,0,0,1,3.842-3.509,19.663,19.663,0,0,1,5.578-2.046c.232-.05.327-.127.347-.378a27.148,27.148,0,0,0-.012-4.482c-.019-.217-.15-.229-.3-.262a20.8,20.8,0,0,1-4.7-1.576,11.29,11.29,0,0,1-4.571-3.695,5.874,5.874,0,0,1-1.143-3.5,5.435,5.435,0,0,1,1.794-3.858,5.637,5.637,0,0,1,3.33-1.679c.023,0,.044-.031.066-.048h.973a.65.65,0,0,0,.155.059,5.563,5.563,0,0,1,2.052.664,9.946,9.946,0,0,1,3.839,3.943,19.432,19.432,0,0,1,2.129,5.728c.045.206.105.31.36.33a28.273,28.273,0,0,0,4.482-.006c.189-.015.232-.1.272-.254.186-.737.354-1.481.584-2.2a14.8,14.8,0,0,1,3.286-5.916,7.329,7.329,0,0,1,3.615-2.191c.228-.054.458-.1.687-.153Zm-4.576,23.982a.534.534,0,0,0-.009.132,11.643,11.643,0,0,0,2.151,4.218,4.122,4.122,0,0,0,1.4,1.108.961.961,0,0,0,.826.089,2.072,2.072,0,0,0,1.136-1.182,1.232,1.232,0,0,0-.272-1.121,6.236,6.236,0,0,0-2.2-1.961A14.2,14.2,0,0,0-650.414-413.728Zm-14.208-14.143a1.9,1.9,0,0,0-.034-.2,12.28,12.28,0,0,0-1.865-3.83,4.78,4.78,0,0,0-1.569-1.394,1.526,1.526,0,0,0-2.1,1.295,1.73,1.73,0,0,0,.415,1.04,6.856,6.856,0,0,0,2.384,1.962A15.277,15.277,0,0,0-664.621-427.871Zm14.157-.032a1.029,1.029,0,0,0,.164-.014,10.939,10.939,0,0,0,4.262-2.223,5.261,5.261,0,0,0,1.048-1.369c.394-.738-.542-2.024-1.383-1.973a.449.449,0,0,0-.194.041,6.988,6.988,0,0,0-1.206.731A10.445,10.445,0,0,0-650.465-427.9Zm-14.143,14.2a1.106,1.106,0,0,0-.164.018,12.771,12.771,0,0,0-3.557,1.654,5.39,5.39,0,0,0-1.641,1.687,1.581,1.581,0,0,0,1.167,2.222.562.562,0,0,0,.253-.026,4.421,4.421,0,0,0,.724-.325,5.99,5.99,0,0,0,1.879-2.081A13.587,13.587,0,0,0-664.607-413.707Zm8.978-9h-3.811v3.8h3.811Z" transform="translate(691.333 437.71)" fill="#fff"/>
      <path id="Path_415" data-name="Path 415" d="M-794.689-134c.05-.278.09-.559.152-.835a3.85,3.85,0,0,1,4.109-3.169,3.937,3.937,0,0,1,4.037,3.833,5.4,5.4,0,0,1-.53,3.133,3.732,3.732,0,0,1-3.126,2.007,3.938,3.938,0,0,1-2.527-.536v3.873l-2.116.047Zm2.053.465.055.009c0,.153-.008.306,0,.458a1.958,1.958,0,0,0,1.694,2.082,1.867,1.867,0,0,0,2.322-1.53,6.153,6.153,0,0,0,.056-1.726,1.816,1.816,0,0,0-1.8-1.8,1.832,1.832,0,0,0-2.118,1.334A11.327,11.327,0,0,0-792.636-133.538Z" transform="translate(794.689 180.118)" fill="#fff"/>
      <path id="Path_416" data-name="Path 416" d="M-517.252-129.195h-2.008c-.006-.116-.016-.226-.016-.336,0-1.659,0-3.317,0-4.976a2.71,2.71,0,0,0-.068-.622c-.143-.592-.582-.9-1.362-.953a2.836,2.836,0,0,0-.793.066,1.189,1.189,0,0,0-.991,1.28c0,1.725,0,3.451,0,5.176v.358h-2.057c-.006-.116-.017-.228-.017-.34,0-1.639-.033-3.28.009-4.918.033-1.285-.727-1.723-1.9-1.605-.788.079-1.14.37-1.273.973a2.545,2.545,0,0,0-.042.54q0,2.5,0,5c0,.112-.01.225-.016.351h-2.059v-5.5a3.118,3.118,0,0,1,2.833-3.272,4.116,4.116,0,0,1,3.523.981,3.356,3.356,0,0,1,1.752-.94,4.07,4.07,0,0,1,3.51.739,2.652,2.652,0,0,1,.991,2.078c.034,1.944.011,3.889.011,5.833A.507.507,0,0,1-517.252-129.195Z" transform="translate(567.06 180.147)" fill="#fff"/>
      <path id="Path_417" data-name="Path 417" d="M-683.768-137.954a4.014,4.014,0,0,1,4.209,4.04,5.637,5.637,0,0,1-.346,2.465,3.825,3.825,0,0,1-3.422,2.461,4.665,4.665,0,0,1-1.943-.209,3.626,3.626,0,0,1-2.311-2.109,5.325,5.325,0,0,1,.067-4.46,3.793,3.793,0,0,1,3.431-2.187C-683.978-137.96-683.872-137.954-683.768-137.954Zm-2.194,4.469c.056.369.081.722.166,1.061a1.914,1.914,0,0,0,1.908,1.507,1.946,1.946,0,0,0,2.1-1.4,4.123,4.123,0,0,0,.127-1.723,1.979,1.979,0,0,0-1.878-1.951,1.93,1.93,0,0,0-2.238,1.428A9.694,9.694,0,0,0-685.962-133.485Z" transform="translate(703.022 180.073)" fill="#fff"/>
      <path id="Path_418" data-name="Path 418" d="M-425.882-137.028v.35q0,2.331,0,4.661a2.722,2.722,0,0,0,.041.511,1.532,1.532,0,0,0,1.544,1.371,3,3,0,0,0,.849-.069,1.591,1.591,0,0,0,1.191-1.7c.006-1.573,0-3.146,0-4.719V-137c.1-.011.191-.028.281-.029.505,0,1.011.006,1.516,0,.2,0,.289.046.288.269-.008,1.554.007,3.108-.011,4.661a7.092,7.092,0,0,1-.153,1.386,2.934,2.934,0,0,1-2.307,2.381,5.813,5.813,0,0,1-2.856,0,3,3,0,0,1-2.355-2.574,6.793,6.793,0,0,1-.1-1.164c-.011-1.544,0-3.089-.01-4.633,0-.246.061-.335.319-.327C-427.064-137.016-426.485-137.028-425.882-137.028Z" transform="translate(479.489 179.281)" fill="#fff"/>
      <path id="Path_419" data-name="Path 419" d="M-362.938-129.8l.475-1.751c.6.183,1.165.379,1.743.526a3.984,3.984,0,0,0,1.755.1,2.266,2.266,0,0,0,.277-.065.749.749,0,0,0,.608-.643.689.689,0,0,0-.489-.7c-.612-.26-1.238-.487-1.856-.734-.4-.159-.8-.311-1.182-.5a2,2,0,0,1-1.184-2.353A2.109,2.109,0,0,1-361-137.892a9.732,9.732,0,0,1,4.517.3l-.386,1.738c-.79-.118-1.538-.248-2.291-.335a5,5,0,0,0-1.023.023.532.532,0,0,0-.545.455.539.539,0,0,0,.4.646c.533.228,1.082.417,1.619.637.484.2.969.395,1.437.627a2.2,2.2,0,0,1,1.245,2.462A2.314,2.314,0,0,1-357.7-129.3a6.158,6.158,0,0,1-2.57.215,7.642,7.642,0,0,1-2.426-.605C-362.771-129.719-362.845-129.759-362.938-129.8Z" transform="translate(423.601 180.153)" fill="#fff"/>
      <path id="Path_420" data-name="Path 420" d="M-625.692-137.012c.764,0,1.467-.007,2.17.009.085,0,.191.11.249.2.524.772,1.04,1.55,1.558,2.326.052.079.108.155.185.265.073-.1.136-.175.191-.257.519-.776,1.04-1.551,1.551-2.332a.414.414,0,0,1,.4-.213c.657.01,1.314,0,2.034,0-.077.122-.125.206-.18.285-.9,1.278-1.793,2.559-2.7,3.831a.306.306,0,0,0,0,.422c.9,1.287,1.794,2.581,2.69,3.872.058.084.115.169.2.3-.761,0-1.47.007-2.179-.009-.084,0-.185-.115-.243-.2-.522-.774-1.036-1.553-1.553-2.33-.057-.086-.116-.17-.2-.291-.08.11-.142.188-.2.27-.523.784-1.05,1.566-1.564,2.357a.4.4,0,0,1-.39.21c-.657-.012-1.314,0-2.026,0,.073-.115.123-.2.179-.28.881-1.267,1.753-2.54,2.654-3.793a.456.456,0,0,0-.014-.64c-.9-1.245-1.777-2.5-2.662-3.752C-625.582-136.828-625.619-136.894-625.692-137.012Z" transform="translate(649.439 179.266)" fill="#fff"/>
      <path id="Path_421" data-name="Path 421" d="M-719.35-137.945l-.344,1.983a7.479,7.479,0,0,0-.771,0,1.556,1.556,0,0,0-1.486,1.67c-.01,1.591,0,3.181,0,4.772v.355h-2.058c-.006-.12-.017-.232-.017-.344q0-2.343,0-4.686a3.566,3.566,0,0,1,3.917-3.8C-719.877-137.988-719.642-137.964-719.35-137.945Z" transform="translate(733.958 180.107)" fill="#fff"/>
      <path id="Path_422" data-name="Path 422" d="M-557.553-128.144v-8.666h2.028v8.666Z" transform="translate(590.872 179.088)" fill="#fff"/>
    </g>
  </g>
</svg>
