<svg xmlns="http://www.w3.org/2000/svg" width="89.473" height="89.473" viewBox="0 0 89.473 89.473">
  <g id="Group_414" data-name="Group 414" transform="translate(-5253 -1444.526)">
    <rect id="Rectangle_145" data-name="Rectangle 145" width="89.473" height="89.473" transform="translate(5253 1444.526)" fill="#542791"/>
    <g id="Group_413" data-name="Group 413" transform="translate(5265.136 1463.288)">
      <path id="Path_414" data-name="Path 414" d="M-646.988-437.71c.237.054.475.1.711.164a5.876,5.876,0,0,1,4.255,4.743,5.369,5.369,0,0,1-.953,3.637,10.139,10.139,0,0,1-3.782,3.346,18.992,18.992,0,0,1-5.212,1.876c-.213.046-.307.121-.309.354-.007,1.151-.032,2.3-.045,3.452a4.962,4.962,0,0,0,.037.547c.05.5.052.5.541.611a18.008,18.008,0,0,1,5.89,2.371,8.922,8.922,0,0,1,3.312,3.578,5.118,5.118,0,0,1-1.2,6.151,5.748,5.748,0,0,1-2.779,1.511,5.143,5.143,0,0,1-3.543-.612,9.538,9.538,0,0,1-3.623-3.734,18.805,18.805,0,0,1-2.065-5.548c-.042-.189-.1-.267-.311-.286a25.869,25.869,0,0,0-4.274,0c-.251.02-.291.141-.332.331a19.4,19.4,0,0,1-1.6,4.676,10.667,10.667,0,0,1-3.476,4.2,5.662,5.662,0,0,1-3.2,1.067,5.172,5.172,0,0,1-3.546-1.449,5.557,5.557,0,0,1-1.831-3.045,5.26,5.26,0,0,1,.818-3.922,9.842,9.842,0,0,1,3.688-3.368,18.87,18.87,0,0,1,5.354-1.964c.223-.048.314-.122.333-.362a26.05,26.05,0,0,0-.011-4.3c-.018-.209-.144-.22-.286-.251a19.964,19.964,0,0,1-4.507-1.512,10.836,10.836,0,0,1-4.387-3.546,5.638,5.638,0,0,1-1.1-3.355,5.217,5.217,0,0,1,1.722-3.7,5.411,5.411,0,0,1,3.2-1.611c.022,0,.042-.03.063-.046h.934a.624.624,0,0,0,.149.056,5.339,5.339,0,0,1,1.969.637,9.547,9.547,0,0,1,3.685,3.784,18.65,18.65,0,0,1,2.043,5.5c.043.2.1.3.345.317a27.136,27.136,0,0,0,4.3-.006c.181-.014.223-.094.261-.244.179-.707.34-1.421.56-2.116a14.2,14.2,0,0,1,3.154-5.678,7.034,7.034,0,0,1,3.469-2.1c.219-.052.439-.1.659-.147Zm-4.392,23.017a.517.517,0,0,0-.008.127,11.175,11.175,0,0,0,2.064,4.048,3.957,3.957,0,0,0,1.346,1.064.922.922,0,0,0,.792.085,1.989,1.989,0,0,0,1.09-1.135,1.182,1.182,0,0,0-.261-1.076,5.986,5.986,0,0,0-2.107-1.882A13.633,13.633,0,0,0-651.38-414.693Zm-13.636-13.574a1.833,1.833,0,0,0-.032-.188,11.786,11.786,0,0,0-1.79-3.676,4.587,4.587,0,0,0-1.506-1.338,1.465,1.465,0,0,0-2.011,1.243,1.66,1.66,0,0,0,.4,1,6.58,6.58,0,0,0,2.288,1.883A14.665,14.665,0,0,0-665.016-428.267Zm13.587-.031a.981.981,0,0,0,.157-.014,10.5,10.5,0,0,0,4.091-2.134,5.05,5.05,0,0,0,1.006-1.314c.378-.708-.52-1.942-1.328-1.894a.432.432,0,0,0-.186.039,6.705,6.705,0,0,0-1.158.7A10.025,10.025,0,0,0-651.429-428.3ZM-665-414.673a1.062,1.062,0,0,0-.158.017,12.257,12.257,0,0,0-3.414,1.587,5.174,5.174,0,0,0-1.575,1.619,1.518,1.518,0,0,0,1.12,2.133.539.539,0,0,0,.243-.025,4.243,4.243,0,0,0,.695-.312,5.749,5.749,0,0,0,1.8-2A13.039,13.039,0,0,0-665-414.673Zm8.617-8.636h-3.658v3.65h3.658Z" transform="translate(690.653 437.71)" fill="#fff"/>
      <path id="Path_415" data-name="Path 415" d="M-794.689-134.164c.048-.267.086-.536.146-.8a3.7,3.7,0,0,1,3.944-3.041,3.779,3.779,0,0,1,3.875,3.679,5.179,5.179,0,0,1-.508,3.007,3.582,3.582,0,0,1-3,1.926,3.78,3.78,0,0,1-2.425-.515v3.717l-2.031.045Zm1.971.446.053.008c0,.146-.007.293,0,.439a1.879,1.879,0,0,0,1.626,2,1.792,1.792,0,0,0,2.228-1.468,5.908,5.908,0,0,0,.054-1.657,1.743,1.743,0,0,0-1.729-1.727,1.758,1.758,0,0,0-2.033,1.28A10.877,10.877,0,0,0-792.718-133.718Z" transform="translate(794.689 178.424)" fill="#fff"/>
      <path id="Path_416" data-name="Path 416" d="M-517.759-129.551h-1.927c-.006-.112-.016-.217-.016-.323,0-1.592,0-3.184,0-4.775a2.6,2.6,0,0,0-.065-.6c-.138-.568-.559-.868-1.307-.915a2.722,2.722,0,0,0-.761.064,1.141,1.141,0,0,0-.951,1.228c0,1.656,0,3.312,0,4.968v.343h-1.974c-.006-.112-.017-.219-.017-.327,0-1.573-.031-3.148.009-4.72.032-1.234-.7-1.653-1.82-1.541-.757.076-1.094.355-1.222.934a2.442,2.442,0,0,0-.04.518q0,2.4,0,4.8c0,.108-.01.216-.015.337h-1.976v-5.281a2.992,2.992,0,0,1,2.719-3.14,3.951,3.951,0,0,1,3.381.941,3.22,3.22,0,0,1,1.681-.9,3.906,3.906,0,0,1,3.369.709,2.546,2.546,0,0,1,.951,1.994c.033,1.866.011,3.732.01,5.6A.485.485,0,0,1-517.759-129.551Z" transform="translate(565.563 178.453)" fill="#fff"/>
      <path id="Path_417" data-name="Path 417" d="M-683.939-137.954a3.852,3.852,0,0,1,4.04,3.877,5.411,5.411,0,0,1-.332,2.366,3.671,3.671,0,0,1-3.284,2.362,4.478,4.478,0,0,1-1.865-.2,3.48,3.48,0,0,1-2.218-2.024,5.111,5.111,0,0,1,.064-4.281,3.64,3.64,0,0,1,3.293-2.1C-684.141-137.96-684.04-137.954-683.939-137.954Zm-2.106,4.289c.054.354.077.693.159,1.018a1.837,1.837,0,0,0,1.831,1.446,1.868,1.868,0,0,0,2.018-1.347,3.957,3.957,0,0,0,.122-1.654,1.9,1.9,0,0,0-1.8-1.873,1.852,1.852,0,0,0-2.148,1.37A9.324,9.324,0,0,0-686.046-133.665Z" transform="translate(702.419 178.378)" fill="#fff"/>
      <path id="Path_418" data-name="Path 418" d="M-425.965-137.029v.336q0,2.237,0,4.474a2.612,2.612,0,0,0,.039.49,1.47,1.47,0,0,0,1.482,1.316,2.878,2.878,0,0,0,.815-.066,1.527,1.527,0,0,0,1.143-1.635c.006-1.51,0-3.019,0-4.529V-137c.1-.01.183-.027.269-.028.485,0,.97.006,1.455,0,.194,0,.278.044.276.259-.008,1.491.007,2.983-.011,4.474a6.806,6.806,0,0,1-.147,1.33,2.815,2.815,0,0,1-2.214,2.285,5.579,5.579,0,0,1-2.741,0,2.883,2.883,0,0,1-2.26-2.471,6.52,6.52,0,0,1-.1-1.117c-.011-1.482,0-2.964-.009-4.446,0-.236.058-.322.306-.314C-427.1-137.017-426.544-137.029-425.965-137.029Z" transform="translate(477.415 177.581)" fill="#fff"/>
      <path id="Path_419" data-name="Path 419" d="M-362.938-130.136l.456-1.681c.576.176,1.118.364,1.673.505a3.823,3.823,0,0,0,1.684.091,2.176,2.176,0,0,0,.266-.062.719.719,0,0,0,.583-.617.661.661,0,0,0-.469-.673c-.587-.25-1.188-.467-1.781-.7-.381-.153-.767-.3-1.134-.48a1.92,1.92,0,0,1-1.136-2.259,2.024,2.024,0,0,1,1.716-1.883,9.34,9.34,0,0,1,4.335.29l-.37,1.668c-.758-.114-1.476-.238-2.2-.322a4.8,4.8,0,0,0-.981.022.511.511,0,0,0-.523.436.518.518,0,0,0,.38.62c.511.219,1.039.4,1.554.611.464.19.93.379,1.379.6a2.111,2.111,0,0,1,1.2,2.363,2.221,2.221,0,0,1-1.6,1.96,5.91,5.91,0,0,1-2.466.206,7.334,7.334,0,0,1-2.329-.581C-362.777-130.054-362.849-130.092-362.938-130.136Z" transform="translate(421.16 178.458)" fill="#fff"/>
      <path id="Path_420" data-name="Path 420" d="M-625.692-137.012c.733,0,1.408-.007,2.083.009.082,0,.183.106.239.188.5.741,1,1.488,1.5,2.233.05.075.1.149.178.255.07-.094.131-.168.184-.247.5-.745,1-1.488,1.488-2.238a.4.4,0,0,1,.38-.2c.63.009,1.261,0,1.952,0-.074.117-.12.2-.173.273-.862,1.227-1.721,2.456-2.591,3.677a.293.293,0,0,0,0,.405c.866,1.235,1.722,2.477,2.581,3.716.056.081.11.163.2.289-.73,0-1.411.007-2.091-.009-.08,0-.178-.111-.234-.193-.5-.742-.994-1.49-1.49-2.236-.055-.082-.111-.163-.19-.279-.077.105-.136.18-.189.259-.5.753-1.008,1.5-1.5,2.262a.383.383,0,0,1-.374.2c-.631-.012-1.261,0-1.945,0,.07-.111.118-.191.172-.268.846-1.216,1.683-2.438,2.547-3.64a.437.437,0,0,0-.014-.614c-.86-1.195-1.705-2.4-2.555-3.6C-625.587-136.836-625.622-136.9-625.692-137.012Z" transform="translate(648.484 177.566)" fill="#fff"/>
      <path id="Path_421" data-name="Path 421" d="M-719.538-137.947l-.331,1.9a7.175,7.175,0,0,0-.74,0,1.493,1.493,0,0,0-1.427,1.6c-.009,1.527,0,3.053,0,4.58v.341h-1.975c-.006-.115-.016-.222-.016-.33q0-2.249,0-4.5a3.422,3.422,0,0,1,3.76-3.65C-720.044-137.988-719.818-137.966-719.538-137.947Z" transform="translate(733.558 178.413)" fill="#fff"/>
      <path id="Path_422" data-name="Path 422" d="M-557.553-128.493v-8.317h1.946v8.317Z" transform="translate(589.531 177.386)" fill="#fff"/>
    </g>
  </g>
</svg>
